<svg xmlns="http://www.w3.org/2000/svg" width="90" height="36" viewBox="0 0 90 36" fill="none">
    <path d="M15.7822 7.76367C19.6871 7.76371 22.6801 8.73825 24.7617 10.6865V10.6934C24.7756 10.704 24.7898 10.7149 24.8037 10.7256C24.806 10.7278 24.8082 10.7302 24.8105 10.7324V10.7305C26.2094 11.8075 27.7736 13.1089 28.3994 13.6328V28.7344H24.8105L25.042 26.0703C23.9617 27.2119 22.6116 28.1001 20.9912 28.7344C19.3706 29.3941 17.5439 29.7109 15.5117 29.6855C13.6598 29.6855 11.9879 29.4703 10.4961 29.0391C9.02992 28.6077 7.76947 27.9476 6.71484 27.0596C5.66024 26.1716 4.84911 25.0556 4.2832 23.7109C3.71729 22.3408 3.42221 20.7292 3.39648 18.877C3.39649 16.9742 3.66599 15.3251 4.20605 13.9297C4.77197 12.5342 5.58304 11.3792 6.6377 10.4658C7.71794 9.55259 9.01678 8.88052 10.5342 8.44922C12.0776 7.99251 13.8273 7.76367 15.7822 7.76367ZM15.7822 10.999C12.7985 10.999 10.6117 11.5948 9.22266 12.7871C7.83362 13.9796 7.11299 15.9718 7.06152 18.7627C7.11297 21.5282 7.87179 23.4949 9.33789 24.6621C10.8041 25.8039 12.927 26.375 15.7051 26.375C17.0939 26.375 18.3413 26.2351 19.4473 25.9561C20.579 25.677 21.5311 25.2329 22.3027 24.624C23.0744 24.0151 23.6666 23.2287 24.0781 22.2646C24.5154 21.3005 24.7467 20.1328 24.7725 18.7627C24.721 15.9718 23.949 13.9923 22.457 12.8252C20.9908 11.6329 18.7658 11.0244 15.7822 10.999ZM28.3994 7.32617H24.8105V2.09277H28.3994V7.32617Z" fill="#1A1221"/>
    <path d="M74.2178 28.6553C70.313 28.6552 67.3199 27.6806 65.2383 25.7324L65.2383 25.7246C63.8271 24.6403 62.2334 23.3149 61.6006 22.7852L61.6006 7.68457L65.1895 7.68457L64.958 10.3486C66.0383 9.20698 67.3884 8.31886 69.0088 7.68457C70.6294 7.02488 72.4561 6.70705 74.4883 6.73242C76.3402 6.73244 78.0121 6.9486 79.5039 7.37988C80.9701 7.81122 82.2305 8.47133 83.2852 9.35937C84.3398 10.2474 85.1509 11.3633 85.7168 12.708C86.2827 14.0781 86.5778 15.6898 86.6035 17.542C86.6035 19.4447 86.3341 21.0939 85.7939 22.4893C85.228 23.8847 84.4169 25.0387 83.3623 25.9521C82.282 26.8655 80.9834 27.5384 79.4658 27.9697C77.9224 28.4264 76.1727 28.6553 74.2178 28.6553ZM74.2178 25.4199C77.2017 25.4199 79.3883 24.8234 80.7773 23.6309C82.1663 22.4384 82.887 20.447 82.9385 17.6562C82.887 14.8909 82.1281 12.924 80.6621 11.7568C79.1959 10.6151 77.073 10.0439 74.2949 10.0439C72.9061 10.044 71.6587 10.1838 70.5527 10.4629C69.4209 10.742 68.469 11.186 67.6973 11.7949C66.9256 12.4039 66.3334 13.1901 65.9219 14.1543C65.4846 15.1184 65.2533 16.2862 65.2275 17.6562C65.2791 20.447 66.0511 22.4257 67.543 23.5928C69.0092 24.7853 71.234 25.3945 74.2178 25.4199ZM61.6006 29.0928L65.1895 29.0928L65.1895 34.3252L61.6006 34.3252L61.6006 29.0928Z" fill="#1A1221"/>
    <path d="M42.2461 15.7737V20.2756L35.6553 28.7346H31.1025L39.668 18.1917L31.9512 8.56274H36.5049L42.2461 15.7737ZM50.2021 18.1536L58.7676 28.7346H54.2148L47.6729 20.6584V15.8391L53.3662 8.56274H57.8418L50.2021 18.1536Z" fill="#1A1221"/>
</svg>